<?xml version="1.0" standalone="no"?>
<!DOCTYPE svg PUBLIC "-//W3C//DTD SVG 20010904//EN"
 "http://www.w3.org/TR/2001/REC-SVG-20010904/DTD/svg10.dtd">
<svg version="1.0" xmlns="http://www.w3.org/2000/svg"
 width="314.000000pt" height="314.000000pt" viewBox="0 0 314.000000 314.000000"
 preserveAspectRatio="xMidYMid meet">
<metadata>
Created by potrace 1.11, written by Peter Selinger 2001-2013
</metadata>
<g transform="translate(0.000000,314.000000) scale(0.100000,-0.100000)"
fill="#000000" stroke="none">
<path d="M1375 2920 c-312 -49 -570 -183 -791 -411 -249 -258 -377 -578 -377
-939 0 -278 70 -520 216 -742 192 -293 473 -493 818 -583 141 -37 395 -46 550
-20 428 71 801 349 997 740 96 194 136 369 136 605 1 185 -12 266 -69 437
-128 383 -426 692 -812 839 -139 52 -265 75 -443 79 -91 2 -192 0 -225 -5z
m468 -159 c421 -96 766 -411 897 -818 143 -444 28 -924 -299 -1251 -136 -136
-294 -233 -482 -296 l-104 -35 -3 55 c-2 31 2 62 8 69 6 7 34 16 63 20 72 10
115 30 160 73 63 60 82 105 81 192 l-1 75 -232 524 c-209 469 -231 525 -216
534 39 21 92 78 113 120 91 181 -1 390 -195 443 -113 30 -220 -2 -302 -92 -64
-70 -85 -131 -79 -228 6 -92 43 -165 110 -215 27 -21 46 -42 44 -51 -2 -8
-106 -247 -231 -530 -222 -500 -228 -517 -228 -580 0 -76 17 -122 67 -178 44
-48 102 -77 174 -87 63 -8 82 -30 82 -92 0 -42 -1 -43 -27 -37 -113 27 -295
119 -415 209 -237 179 -407 453 -464 752 -22 117 -22 329 0 445 98 513 503
910 1013 993 120 20 348 13 466 -14z m-180 -469 c46 -43 60 -79 55 -138 -14
-169 -235 -209 -309 -56 -61 125 48 260 186 230 22 -5 53 -21 68 -36z m83
-862 c301 -678 288 -647 275 -691 -14 -48 -62 -89 -104 -89 -61 0 -111 -21
-153 -65 -46 -47 -64 -101 -64 -188 0 -53 -1 -55 -31 -61 -40 -8 -120 -8 -198
0 l-61 7 0 69 c0 77 -17 129 -58 171 -38 40 -69 55 -143 66 -52 8 -69 16 -91
41 -52 57 -51 63 199 628 158 359 230 512 240 510 8 -2 91 -176 189 -398z"/>
</g>
</svg>
