<?xml version="1.0" standalone="no"?>
<!DOCTYPE svg PUBLIC "-//W3C//DTD SVG 20010904//EN"
 "http://www.w3.org/TR/2001/REC-SVG-20010904/DTD/svg10.dtd">
<svg version="1.0" xmlns="http://www.w3.org/2000/svg"
 width="2000.000000pt" height="2000.000000pt" viewBox="0 0 2000.000000 2000.000000"
 preserveAspectRatio="xMidYMid meet">
<metadata>
Created by potrace 1.11, written by Peter Selinger 2001-2013
</metadata>
<g transform="translate(0.000000,2000.000000) scale(0.100000,-0.100000)"
fill="#000000" stroke="none">
<path d="M9490 18549 c-783 -51 -1500 -191 -2211 -429 -1648 -551 -3087 -1592
-4139 -2995 -845 -1128 -1407 -2474 -1609 -3855 -64 -440 -91 -814 -91 -1270
0 -340 10 -547 41 -860 284 -2869 2007 -5405 4583 -6746 207 -108 224 -116
536 -253 809 -357 1731 -591 2635 -670 486 -43 1066 -43 1529 -1 398 36 785
98 1206 194 413 94 925 262 1365 448 890 376 1751 930 2457 1581 455 420 876
899 1214 1382 834 1190 1344 2539 1503 3970 41 365 46 472 46 955 0 567 -19
834 -95 1328 -393 2550 -1950 4810 -4204 6104 -1085 622 -2274 991 -3556 1104
-216 19 -996 27 -1210 13z m1035 -334 c354 -23 704 -67 1042 -131 187 -35 625
-142 768 -187 303 -96 411 -132 568 -191 1132 -425 2197 -1127 3029 -1998 753
-787 1322 -1668 1718 -2663 148 -371 233 -639 339 -1060 222 -894 296 -1915
201 -2797 -6 -57 -15 -143 -21 -193 -5 -49 -21 -160 -34 -245 -14 -85 -30
-186 -36 -225 -11 -72 -57 -282 -109 -505 -101 -426 -313 -1029 -511 -1453
-137 -293 -321 -642 -436 -826 -15 -24 -15 -23 -170 130 -84 85 -163 168 -174
186 -32 51 -48 129 -59 283 -6 80 -19 188 -30 240 -32 148 -59 291 -64 332 -2
20 -11 69 -20 110 -19 93 -57 300 -91 498 -51 299 -65 358 -119 516 -30 87
-62 179 -71 204 -10 25 -44 119 -75 210 -32 91 -77 210 -100 265 -23 55 -66
174 -97 265 -31 91 -76 212 -100 270 -25 58 -60 144 -79 193 -113 296 -431
960 -556 1162 -119 193 -249 438 -345 650 -17 39 -73 158 -124 265 -50 107
-114 248 -140 314 -64 155 -142 302 -274 516 -115 187 -186 305 -243 410 -19
36 -48 84 -63 108 -16 24 -29 45 -29 48 0 11 -163 244 -237 339 -70 89 -132
175 -310 425 -29 41 -96 129 -148 195 -83 105 -109 130 -202 195 -59 41 -166
131 -237 200 -206 197 -264 230 -384 211 -116 -18 -130 -15 -293 58 -209 94
-234 101 -337 101 -164 0 -256 -38 -462 -190 -74 -55 -193 -137 -264 -182 -70
-46 -192 -137 -270 -203 -79 -66 -197 -162 -264 -213 l-122 -94 0 -136 c0
-209 22 -319 97 -489 3 -8 -3 -13 -15 -13 -11 0 -34 -11 -50 -25 -17 -14 -33
-25 -37 -25 -13 0 -46 -45 -70 -95 -30 -60 -31 -108 -6 -174 10 -28 17 -52 14
-54 -6 -6 104 -103 197 -173 41 -31 91 -71 110 -89 59 -56 157 -102 230 -109
36 -4 83 -9 105 -12 41 -5 118 -37 145 -60 8 -7 79 -44 157 -83 235 -117 406
-173 573 -186 47 -4 108 -12 135 -17 28 -6 120 -12 205 -13 179 -2 332 -25
402 -61 53 -27 86 -70 196 -261 60 -102 127 -228 122 -228 -3 0 82 -205 148
-355 9 -19 16 -37 17 -40 1 -3 4 -12 8 -20 13 -35 87 -277 91 -300 2 -14 19
-72 36 -130 17 -58 57 -204 90 -325 32 -121 68 -255 79 -298 12 -42 46 -209
76 -371 l54 -294 -3 -234 c-4 -233 -10 -324 -40 -536 -9 -62 -16 -141 -16
-175 0 -72 -8 -107 -23 -107 -34 0 -173 178 -267 340 -73 126 -139 220 -225
320 -45 52 -104 129 -132 170 -49 73 -183 304 -183 314 0 9 -90 138 -133 191
-23 28 -57 63 -77 78 -19 15 -53 42 -75 59 -143 110 -394 153 -634 109 -135
-25 -216 -26 -291 -6 -30 9 -92 18 -136 22 -81 5 -140 -6 -264 -51 -108 -40
-180 -49 -324 -41 -187 10 -172 10 -246 -3 -62 -11 -67 -14 -150 -97 -47 -47
-88 -85 -92 -85 -4 0 -66 52 -140 116 -225 196 -472 371 -658 467 l-102 52 -2
128 c-1 71 2 131 7 134 5 3 6 11 3 19 -9 23 12 229 29 289 21 70 49 134 129
295 35 69 76 157 91 195 15 39 32 76 37 83 6 6 8 12 5 12 -3 0 4 28 14 63 21
68 78 287 84 327 3 14 9 75 13 135 5 61 15 124 22 140 7 17 13 33 12 37 -3 11
58 175 123 333 31 77 83 212 116 300 60 166 143 377 160 408 5 10 7 22 3 28
-3 5 0 16 6 24 6 8 9 19 5 25 -4 6 -4 19 0 28 4 9 9 26 10 37 1 11 8 56 15
100 32 212 -27 400 -209 673 -31 46 -60 92 -66 103 -5 10 -13 19 -17 19 -5 0
-8 7 -8 15 0 8 -4 15 -10 15 -5 0 -10 7 -10 15 0 8 -4 15 -10 15 -5 0 -10 5
-10 10 0 6 -4 16 -10 23 -47 57 -60 76 -60 86 0 6 -4 11 -10 11 -5 0 -10 7
-10 15 0 8 -4 15 -10 15 -5 0 -10 6 -10 14 0 8 -4 16 -9 18 -21 7 -260 393
-325 523 -93 188 -188 351 -314 539 -15 21 -31 46 -37 56 -48 86 -88 149 -145
235 -82 122 -154 248 -169 295 -78 251 -88 273 -162 354 -54 58 -77 75 -158
113 -52 24 -131 53 -175 64 -114 28 -177 48 -208 65 -16 8 -28 13 -28 9 0 -3
-17 2 -37 11 -59 25 -244 73 -259 67 -8 -3 -20 -1 -27 5 -14 11 -189 39 -306
48 l-83 6 62 63 c34 35 74 69 89 76 44 22 186 146 237 207 27 31 79 89 117
129 88 91 87 109 -1 106 -35 -1 -69 -6 -75 -11 -18 -13 -136 -50 -187 -57 -25
-3 -94 -22 -155 -40 -60 -19 -144 -39 -185 -45 -78 -11 -104 -15 -155 -24 -16
-3 -68 -10 -115 -16 -47 -6 -134 -20 -195 -30 -110 -20 -288 -41 -335 -41 -39
0 -188 -37 -265 -66 -38 -14 -127 -55 -196 -90 -142 -72 -188 -113 -281 -250
-56 -81 -56 -82 -63 -175 -3 -51 -5 -111 -3 -133 3 -37 1 -40 -42 -63 -41 -22
-55 -24 -150 -21 -267 8 -469 -62 -723 -250 -35 -26 -75 -75 -139 -171 -54
-81 -117 -161 -157 -200 -37 -36 -79 -81 -92 -101 -50 -74 -119 -166 -166
-217 -26 -30 -66 -76 -88 -102 -22 -27 -67 -82 -101 -122 -33 -40 -75 -98 -93
-128 -18 -30 -44 -67 -58 -81 -19 -21 -24 -35 -21 -65 4 -50 34 -57 84 -19 45
34 187 73 312 85 53 5 104 10 112 11 8 1 32 1 53 1 l39 -2 -21 -34 c-27 -44
-71 -150 -127 -306 -44 -123 -45 -128 -52 -291 -9 -220 -8 -349 6 -494 7 -67
12 -295 12 -513 0 -363 2 -400 21 -475 21 -87 48 -165 61 -182 5 -5 27 -39 49
-74 64 -102 193 -254 315 -376 85 -83 111 -114 102 -123 -14 -14 3 -37 43 -57
25 -13 69 -81 69 -107 0 -29 181 -376 216 -416 49 -54 107 -90 319 -198 94
-47 177 -92 185 -98 30 -25 204 -78 310 -95 25 -4 59 -15 77 -24 18 -9 41 -17
51 -17 10 0 27 -9 37 -20 16 -18 17 -32 11 -147 -4 -71 -7 -165 -6 -210 1 -73
-1 -83 -19 -92 -24 -13 -188 -37 -321 -46 -183 -13 -451 -59 -501 -86 -9 -4
-24 -25 -34 -45 -26 -55 -15 -256 20 -374 25 -82 74 -275 78 -306 3 -21 11
-78 18 -127 10 -66 10 -112 2 -191 -10 -95 -15 -112 -62 -202 -49 -94 -55
-101 -121 -144 -38 -25 -72 -51 -75 -57 -2 -7 -11 -13 -19 -13 -8 0 -21 -8
-28 -17 -7 -10 -31 -30 -54 -46 -37 -25 -42 -34 -57 -100 -23 -95 -22 -107 13
-207 36 -103 38 -177 10 -334 -11 -60 -20 -128 -20 -150 0 -29 -13 -68 -45
-131 -117 -234 -228 -667 -256 -997 -11 -132 -7 -879 5 -953 4 -22 13 -114 21
-205 8 -91 24 -203 36 -250 11 -47 24 -112 29 -145 15 -115 53 -281 80 -355
15 -41 33 -112 38 -157 6 -44 22 -128 36 -185 14 -56 32 -152 40 -213 8 -60
24 -137 35 -169 12 -33 31 -116 42 -185 12 -69 28 -142 36 -161 8 -19 25 -71
38 -116 12 -44 30 -95 39 -112 9 -18 34 -85 56 -149 22 -64 46 -123 54 -132 7
-9 23 -34 35 -56 23 -43 29 -54 78 -132 18 -28 33 -54 33 -58 0 -4 8 -19 18
-33 10 -15 36 -58 57 -96 l38 -70 -99 69 c-493 340 -826 616 -1229 1019 -864
864 -1524 1914 -1937 3081 -33 94 -69 202 -80 240 -10 39 -23 79 -28 90 -10
24 -79 273 -90 330 -5 22 -26 112 -48 200 -47 188 -124 595 -147 780 -53 421
-69 756 -60 1230 11 564 22 704 90 1135 14 85 30 187 36 225 6 39 26 140 45
225 20 85 46 205 60 265 33 148 212 721 289 926 84 222 261 625 342 779 229
432 257 481 462 798 122 188 371 530 525 722 356 444 946 1008 1420 1359 160
119 508 358 631 433 248 153 627 355 848 454 447 201 649 279 952 368 33 10
74 24 90 32 17 7 82 27 145 44 63 17 138 37 165 45 87 25 417 104 500 119 396
74 788 123 1160 145 231 14 748 12 990 -4z m1838 -14452 c8 -21 36 -82 61
-135 25 -53 46 -99 46 -102 0 -5 35 -58 60 -91 39 -50 201 -201 255 -236 85
-57 448 -232 523 -253 60 -17 67 -16 218 4 157 22 195 21 227 -7 9 -9 26 -21
36 -27 87 -51 160 -97 170 -110 10 -12 -13 -27 -151 -100 -194 -101 -439 -219
-523 -251 -33 -13 -121 -49 -195 -80 -186 -79 -388 -150 -673 -239 -260 -80
-438 -128 -447 -120 -3 3 -6 42 -8 87 -3 78 11 172 37 242 60 165 81 230 81
253 0 15 9 74 21 132 11 58 24 137 29 175 9 81 37 227 52 270 6 17 14 50 18
75 10 54 29 121 40 135 8 10 11 23 30 130 39 214 56 285 69 285 5 0 16 -17 24
-37z"/>
</g>
</svg>
